<?xml version="1.0" encoding="UTF-8" standalone="no"?>
<!-- Created with Inkscape (http://www.inkscape.org/) -->

<svg
   xmlns:dc="http://purl.org/dc/elements/1.1/"
   xmlns:cc="http://creativecommons.org/ns#"
   xmlns:rdf="http://www.w3.org/1999/02/22-rdf-syntax-ns#"
   xmlns:svg="http://www.w3.org/2000/svg"
   xmlns="http://www.w3.org/2000/svg"
   xmlns:sodipodi="http://sodipodi.sourceforge.net/DTD/sodipodi-0.dtd"
   xmlns:inkscape="http://www.inkscape.org/namespaces/inkscape"
   width="44.474583mm"
   height="60.724072mm"
   viewBox="0 0 44.474583 60.724072"
   version="1.1"
   id="svg8"
   inkscape:version="0.92.5 (2060ec1f9f, 2020-04-08)"
   sodipodi:docname="logo.svg">
  <defs
     id="defs2" />
  <sodipodi:namedview
     id="base"
     pagecolor="#ffffff"
     bordercolor="#666666"
     borderopacity="1.0"
     inkscape:pageopacity="0.0"
     inkscape:pageshadow="2"
     inkscape:zoom="2.8"
     inkscape:cx="136.19127"
     inkscape:cy="108.51518"
     inkscape:document-units="mm"
     inkscape:current-layer="layer1"
     showgrid="false"
     inkscape:window-width="1920"
     inkscape:window-height="1027"
     inkscape:window-x="1358"
     inkscape:window-y="-8"
     inkscape:window-maximized="1" />
  <metadata
     id="metadata5">
    <rdf:RDF>
      <cc:Work
         rdf:about="">
        <dc:format>image/svg+xml</dc:format>
        <dc:type
           rdf:resource="http://purl.org/dc/dcmitype/StillImage" />
        <dc:title></dc:title>
      </cc:Work>
    </rdf:RDF>
  </metadata>
  <g
     inkscape:label="Layer 1"
     inkscape:groupmode="layer"
     id="layer1"
     transform="translate(-1.7976667,9.2137408)">
    <path
       style="fill:#ffffff;fill-opacity:1;stroke-width:0.26458332"
       d="m 20.237907,44.560438 c -1.60073,-0.62668 -3.32713,-1.28884 -3.83646,-1.47147 -6.02199,-2.15936 -7.7489903,-2.78605 -8.9562803,-3.25007 l -1.41566,-0.5441 0.1944,-7.53582 c 0.10693,-4.1447 0.19719,-7.66812 0.20058,-7.82983 0.003,-0.1617 -0.0159,-1.18698 -0.0429,-2.27838 l -0.0491,-1.98438 -1.95335,-1.71979 c -1.07434,-0.94589 -2.01956,-1.86807 -2.10048,-2.0493 -0.0809,-0.18124 -0.22225,-3.35579 -0.31406,-7.0545625 l -0.16693,-6.7250346 0.70967,-0.4649999 c 0.59753,-0.39152 0.84498,-0.41606 1.566,-0.15534 1.03806,0.37537 1.29601,0.38916 1.09156,0.0584 -0.18995,-0.3073399 0.68708,-0.8070298 1.41646,-0.8070298 0.29338,0 0.64687,0.20273991 0.78554,0.4505299 0.19742,0.3527699 0.33286,0.3835099 0.62423,0.1417 0.23823,-0.19772 0.652,-0.2336 1.15008,-0.0997 0.74361,0.19986 0.77798,0.2746799 0.77798,1.6932397 0,1.1768799 0.1176603,1.594169 0.5683203,2.0156074 0.31257,0.29231 0.61737,0.67863 0.67732,0.85849 0.19041,0.57122 1.00332,0.023 1.00332,-0.6766 0,-0.7797276 0.48619,-1.0768275 2.15901,-1.3193475 1.21684,-0.17642 1.23534,-0.16797 1.41402,0.6455095 0.16494,0.750998 0.76275,1.303428 1.07384,0.992338 0.0694,-0.0694 0.1764,-0.6314596 0.23785,-1.2490772 0.0673,-0.6768303 0.30175,-1.2619902 0.59006,-1.4729202 0.41172,-0.30123 0.47835,-0.7595599 0.47835,-3.29065971 0,-3.07186019 0.13336,-3.43770029 1.25677,-3.44753039 0.32023,-0.003 0.47524,0.2203302 0.50266,0.7235603 l 0.0396,0.7276001 0.11023,-0.7276001 c 0.0987,-0.6517602 0.21871,-0.7276103 1.15098,-0.7276103 0.90171,0 1.0413,0.0795 1.04481,0.5953203 0.002,0.3274201 0.11947,0.7739001 0.26053,0.9921802 0.2774,0.42925 0.30425,0.36203 0.3699,-0.9260402 0.0227,-0.4446801 0.21235,-0.5291702 1.18812,-0.5291702 1.08236,0 1.16662,0.0514 1.24183,0.7567702 0.12093,1.1341802 0.37515,1.1891302 0.37515,0.0811 0,-1.0369303 0.1097,-1.0937203 1.55443,-0.8047702 l 0.82682,0.1653601 v 1.8190102 c 0,1.40986 -0.086,1.81901004 -0.38238,1.81901004 -0.26834,0 -0.40643,-0.37410004 -0.46302,-1.25439014 -0.0608,-0.9451698 -0.19478,-1.2760599 -0.54366,-1.3423099 -0.36757,-0.0698 -0.46302,0.0979 -0.46302,0.81341 0,0.49574 -0.0752,0.97652996 -0.16708,1.06843007 -0.36953,0.36951994 -1.12644,-0.38643017 -1.20525,-1.20371997 -0.10994,-1.1401502 -0.57793,-1.0983502 -0.74434,0.0665 -0.12512,0.8758499 -0.19324,0.93044995 -1.25677,1.00739996 l -1.12448,0.0814 V -1.8661788 c 0,-0.5818599 -0.11906,-1.1315201 -0.26458,-1.2214601 -0.16181,-0.1 -0.26459,0.3114801 -0.26459,1.0593502 0,1.0061999 -0.082,1.21452986 -0.46302,1.17577986 -0.8956,-0.0911 -1.07472,0.0147 -0.93428,0.55170005 0.082,0.31369004 -0.0557,0.75479008 -0.33036,1.05833011 -0.45624,0.50413988 -0.45064,0.52046988 0.17853,0.52046988 0.35725,0 0.76266,-0.099 0.9009,-0.21998 0.36762,-0.32172988 2.47467,-0.88543994 2.72691,-0.72953992 0.11864,0.0733 1.19176,0.15415001 2.38471,0.17961002 1.66729,0.0356 2.31431,0.16059991 2.79715,0.5403999 0.34548,0.27175 0.81772,0.4940899 1.04943,0.4940899 0.27586,0 0.42128,0.23434 0.42128,0.6788599 0,0.8687098 0.47625,1.7663298 0.82335,1.5518098 0.1472,-0.091 0.3764,-0.45149 0.50934,-0.8011599 0.26615,-0.7000099 0.6881,-0.7696499 2.16993,-0.35812 1.19485,0.33183 1.48392,0.8221499 1.35718,2.3020474 -0.0813,0.94865 -0.0205,1.12448 0.38827,1.12448 0.70364,0 0.86736,-0.27238 0.42788,-0.71186 -0.50382,-0.5038096 -0.48629,-0.6663588 0.14489,-1.3438475 0.39246,-0.42127 0.52916,-0.93372 0.52916,-1.9836998 0,-1.58755971 0.33147,-2.17059977 1.37107,-2.4116698 0.5783,-0.13410001 0.74435,-0.0551 0.89734,0.42694005 0.18748,0.59069996 0.18801,0.59074996 0.39342,0.0355 0.33313,-0.90054009 2.10067,-1.03215 2.10067,-0.15642002 0,0.35334004 0.0624,0.34010004 0.36825,-0.0782 0.30649,-0.41916005 0.43693,-0.44660005 0.77786,-0.16364002 0.2253,0.18697002 0.46009,0.59920006 0.52177,0.91605009 0.0945,0.4856699 0.1178,0.4653499 0.14818,-0.12946001 0.0445,-0.87089009 0.4043,-1.0071901 1.58625,-0.60086006 l 0.91777,0.31552003 -0.0601,1.85417974 c -0.047,1.4490298 0.0591,2.0767598 0.4858,2.8727777 0.68649,1.2808596 0.69124,1.8706998 0.0168,2.0847689 -0.4843,0.153709 -0.52845,0.3963979 -0.52075,2.8620982 0.006,1.9486622 0.1159,2.8362722 0.39687,3.2077422 0.21366,0.28248 0.38694,1.05638 0.38508,1.71979 -0.004,1.27318 -0.23825,1.63496 -3.10547,4.78729 -0.81313,0.89398 -1.12448,1.46246 -1.12448,2.05313 0,0.44927 -0.0893,0.87205 -0.19844,0.93952 -0.10914,0.0675 -0.18039,1.53301 -0.15833,3.25676 0.15363,12.00499 0.1661,14.65487 0.0693,14.72964 -0.32823,0.25354 -2.86812,1.06701 -5.41251,1.73351 -1.59444,0.41766 -3.52848,1.01253 -4.29785,1.32193 -0.76937,0.3094 -1.66561,0.56255 -1.99164,0.56255 -0.32604,0 -0.84592,0.17729 -1.15529,0.39399 -0.66142,0.46327 -3.57616,1.19007 -4.71463,1.1756 -0.43656,-0.006 -2.10343,-0.52282 -3.70416,-1.1495 z m 7.29168,-0.79152 c 1.24553,-0.3778 2.37264,-0.68691 2.5047,-0.68691 0.73363,0 2.50675,-0.91679 2.50675,-1.29612 0,-0.23676 0.26789,-0.55237 0.59531,-0.70134 0.32742,-0.14897 0.58008,-0.38557 0.56147,-0.52576 -0.0186,-0.1402 -0.11331,-0.70138 -0.21043,-1.24709 -0.15929,-0.89501 -0.12056,-0.99219 0.3954,-0.99219 0.53812,0 0.56557,0.10061 0.46375,1.69973 -0.0965,1.51587 -0.061,1.67445 0.32843,1.46603 0.66555,-0.35619 0.65888,-3.30967 -0.009,-3.88133 -0.27015,-0.23132 -0.4367,-0.56258 -0.37009,-0.73615 0.23021,-0.59992 -0.57488,-0.86192 -3.21028,-1.04474 -2.29991,-0.15955 -2.58072,-0.13519 -2.14781,0.18632 0.45737,0.33967 0.46493,0.42204 0.0926,1.00927 -0.4147,0.65403 -0.34657,2.35921 0.0943,2.35921 0.12537,0 0.1565,-0.35719 0.0692,-0.79375 -0.098,-0.48986 -0.0494,-0.79375 0.12692,-0.79375 0.15711,0 0.36384,0.41672 0.45939,0.92604 0.15529,0.82774 0.644,1.32971 0.644,0.66146 0,-0.14552 0.11907,-0.26459 0.26459,-0.26459 0.14552,0 0.26458,0.23813 0.26458,0.52917 0,0.29104 0.11609,0.52917 0.25797,0.52917 0.1431,0 0.19014,-0.33914 0.10564,-0.76166 -0.2421,-1.21046 0.36792,-1.24576 0.69258,-0.0401 0.37003,1.3742 0.64901,1.37938 0.42971,0.008 -0.13475,-0.84266 -0.0877,-1.05834 0.23076,-1.05834 0.22001,0 0.40001,0.22325 0.40001,0.4961 0,0.27285 0.0744,0.86816 0.16536,1.32291 0.16267,0.81332 0.14862,0.82668 -0.85989,0.81752 -0.5639,-0.005 -2.15636,-0.19116 -3.53881,-0.4134 -1.38244,-0.22224 -3.09943,-0.48594 -3.81551,-0.586 -0.75106,-0.10494 -1.35389,-0.33906 -1.42466,-0.5533 -0.10229,-0.30964 0.28625,-0.34051 2.33714,-0.18568 1.99935,0.15093 2.40836,0.12139 2.18491,-0.15779 -0.1512,-0.18892 -0.35685,-1.02125 -0.45699,-1.84964 l -0.18208,-1.50615 -1.37192,-0.26856 c -0.75458,-0.14772 -1.6696,-0.30338 -2.0334,-0.34594 -0.3638,-0.0425 -0.60193,-0.19643 -0.52917,-0.34195 0.15151,-0.303 1.7297,-0.32952 4.26793,-0.0717 1.29513,0.13155 1.74601,0.095 1.72235,-0.13963 -0.0176,-0.1748 0.0605,-0.94487 0.17354,-1.71124 0.19381,-1.31377 0.16342,-1.43007 -0.53173,-2.03442 -0.83107,-0.72253 -2.52384,-1.12809 -4.92653,-1.18033 -0.68959,-0.015 -0.97742,-0.12791 -0.89922,-0.35277 0.0736,-0.21178 0.50605,-0.30094 1.20219,-0.24791 l 1.08718,0.0828 -0.0841,-1.90527 c -0.0784,-1.77591 -0.14299,-1.95668 -0.95141,-2.66251 -0.93388,-0.81537 -1.20176,-0.90575 -1.45761,-0.49178 -0.18686,0.30235 -0.20413,13.06597 -0.0231,17.0587 0.0658,1.45189 0.23965,2.67978 0.38626,2.72865 0.14661,0.0489 0.55657,-0.10117 0.91103,-0.33342 0.78603,-0.51502 5.91634,-1.81213 6.27954,-1.58767 0.49442,0.30557 -0.0265,0.61903 -1.53855,0.92586 -1.41692,0.28752 -4.70432,1.24445 -5.15907,1.50176 -0.46037,0.26048 0.12761,0.5724 0.67522,0.35821 0.32223,-0.12604 1.60493,-0.53827 2.85046,-0.91607 z m 2.6302,-5.3015 c 0,-0.46475 0.15876,-0.53318 0.38557,-0.16619 0.0837,0.13547 0.0312,0.32109 -0.11667,0.41249 -0.1479,0.0914 -0.2689,-0.0194 -0.2689,-0.2463 z m -7.74293,4.57803 c -0.1443,-0.0929 -0.1872,-0.29049 -0.0953,-0.43914 0.20562,-0.3327 -0.0692,-1.1118 -0.39214,-1.1118 -0.12996,0 -0.23628,0.41672 -0.23628,0.92605 0,0.50932 0.11906,0.92604 0.26458,0.92604 0.14552,0 0.27296,0.20836 0.28318,0.46302 0.0158,0.39252 0.0506,0.38245 0.22847,-0.0661 0.12041,-0.30359 0.098,-0.60115 -0.0525,-0.69802 z m -1.25291,-0.38236 c 0,-0.85559 -0.0974,-1.17853 -0.33073,-1.09672 -0.18786,0.0659 -0.2981,0.44682 -0.25519,0.88194 0.1757,1.78182 0.58592,1.9322 0.58592,0.21478 z m -2.91041,-0.24253 c 0,-0.21828 -0.19318,-0.39688 -0.42927,-0.39688 -0.35158,0 -0.36966,0.0718 -0.0999,0.39688 0.41474,0.49972 0.52917,0.49972 0.52917,0 z m 1.54696,-0.72502 c -0.0645,-0.8927 0.0125,-1.1399 0.37664,-1.21002 0.36346,-0.07 0.46627,-0.39725 0.49957,-1.59009 0.0485,-1.73653 -0.002,-2.47592 -0.17992,-2.65419 -0.29149,-0.29149 -0.48624,0.30951 -0.43932,1.35575 0.0548,1.22237 -0.33709,2.2225 -0.59126,1.50886 -0.0763,-0.2142 -0.17199,-0.97546 -0.21267,-1.69169 -0.0412,-0.72568 -0.21588,-1.34894 -0.3945,-1.40772 -0.48333,-0.15905 -0.40411,4.32875 0.0851,4.81791 0.20228,0.20228 0.36778,0.73348 0.36778,1.18043 0,0.44696 0.12817,0.81265 0.28482,0.81265 0.17132,0 0.25253,-0.44705 0.20381,-1.12189 z m -5.93989,-2.78071 c -0.037,-3.08731 -0.0564,-3.24115 -0.40863,-3.24115 -0.21986,0 -0.25415,0.70399 -0.12426,2.5518 0.15458,2.19898 0.29127,3.00445 0.50988,3.00445 0.0279,0 0.0383,-1.0418 0.023,-2.3151 z m 25.49345,1.20228 c 1.30586,-0.48199 1.38906,-0.56703 1.38906,-1.41973 0,-0.58452 -0.1176,-0.88351 -0.33073,-0.84089 -0.1819,0.0364 -0.31532,-0.13544 -0.29649,-0.38182 0.0271,-0.35486 -0.27534,-0.4814 -1.45521,-0.60881 -0.81919,-0.0885 -1.96569,-0.21982 -2.54778,-0.29191 l -1.05833,-0.13108 0.64743,0.55991 c 0.50092,0.43321 0.58721,0.66051 0.38134,1.00447 -0.14634,0.24451 -0.21709,1.0132 -0.15721,1.70821 l 0.10886,1.26367 0.965,-0.17467 c 0.53075,-0.0961 1.59007,-0.40537 2.35406,-0.68735 z m -0.46302,-1.12052 c 0,-0.51791 0.11906,-0.94166 0.26458,-0.94166 0.34474,0 0.34474,1.50673 0,1.71979 -0.15746,0.0973 -0.26458,-0.21774 -0.26458,-0.77813 z m -26.29383,-0.69635 c 0.0208,-1.00804 -0.0673,-1.83281 -0.19566,-1.83281 -0.12839,0 -0.23343,0.91281 -0.23343,2.02847 0,2.5048 0.37699,2.3329 0.42909,-0.19566 z m 5.49731,0.0789 c 0.0551,-1.37462 -0.0254,-1.99998 -0.28536,-2.21572 -0.19919,-0.16531 -0.40955,-0.25317 -0.46747,-0.19525 -0.21677,0.21676 0.20491,4.48317 0.4355,4.40631 0.13229,-0.0441 0.27509,-0.942 0.31733,-1.99534 z m 4.09279,-5.54973 c -0.009,-4.18372 0.0697,-8.5772 0.17391,-9.76328 0.19443,-2.21385 0.0849,-2.80756 -0.47814,-2.59151 -0.34531,0.13251 -0.35668,0.41138 -0.48481,11.89177 -0.0718,6.43723 0.0404,8.06979 0.55472,8.06979 0.15124,0 0.24369,-3.00136 0.23432,-7.60677 z m -11.07752,5.3049 c 0,-0.97499 -0.0965,-1.6596 -0.2145,-1.52136 -0.20826,0.24405 -0.10947,3.29406 0.10669,3.29406 0.0593,0 0.10781,-0.79771 0.10781,-1.7727 z m -1.4345003,-0.7235 c -0.26426,-1.40864 -0.56817,-1.13839 -0.5012,0.44568 0.075,1.77496 0.0689,1.75827 0.3988,1.07567 0.15378,-0.31815 0.19982,-1.00207 0.1024,-1.52135 z m -1.48433,0.1811 c -0.008,-0.9298 -0.0329,-0.95989 -0.39688,-0.4786 -0.41835,0.55311 -0.49366,1.01281 -0.21207,1.2944 0.40352,0.40352 0.61686,0.11771 0.60895,-0.8158 z m 8.2104903,-1.76654 c 0,-0.20761 0.20836,-0.43192 0.46302,-0.49847 0.36681,-0.0959 0.34574,-0.12738 -0.10143,-0.15169 -0.71905,-0.0391 -0.87906,-0.6646 -0.6935,-2.71099 0.1196,-1.31892 0.0776,-1.60081 -0.22344,-1.50146 -0.50778,0.16754 -0.62611,2.63963 -0.19608,4.09607 0.32664,1.10625 0.75143,1.53959 0.75143,0.76654 z m 24.30194,-0.61471 c 0.0253,-0.5457 -0.0219,-1.41818 -0.10499,-1.93885 -0.13778,-0.86382 -0.26761,-0.98396 -1.48374,-1.37286 -0.94837,-0.30328 -1.52285,-0.35392 -1.99189,-0.17559 -0.45643,0.17354 -1.11643,0.13119 -2.14615,-0.13771 -0.81786,-0.21357 -1.55107,-0.32426 -1.62937,-0.24596 -0.0783,0.0783 -0.14289,0.80745 -0.14355,1.62034 -8e-4,0.8129 -0.12845,1.52062 -0.28398,1.57272 -0.40398,0.13533 -1.01567,-1.11638 -0.75314,-1.54117 0.42411,-0.68623 0.2891,-1.33688 -0.33655,-1.62195 -0.85223,-0.3883 -1.08787,-0.0781 -1.29785,1.70853 l -0.17611,1.4984 1.13538,0.30573 c 0.88192,0.23747 1.27291,0.23213 1.75138,-0.024 0.52069,-0.27866 0.69659,-0.25672 1.13698,0.14184 0.28655,0.25932 1.06162,0.53243 1.72237,0.60691 l 1.20136,0.13541 v -1.88649 c 0,-1.69099 0.0532,-1.88649 0.51355,-1.88649 0.5535,0 0.90144,0.34889 0.62431,0.62602 -0.31697,0.31697 -0.31022,2.77689 0.008,3.04129 0.17111,0.14201 0.72735,0.3084 1.23609,0.36977 0.50874,0.0614 0.93546,0.13062 0.94826,0.1539 0.0128,0.0233 0.044,-0.40414 0.0693,-0.94984 z m -20.12482,-2.22756 c -0.0517,-1.6489 -0.18201,-2.46109 -0.4068,-2.53558 -0.24616,-0.0816 -0.33073,0.43175 -0.33073,2.00747 0,2.19397 0.146,2.95411 0.5674,2.95411 0.13951,0 0.21324,-1.05128 0.17013,-2.426 z m -12.3832503,0.77235 c -0.003,-0.99442 -0.0769,-1.2763 -0.26053,-0.99218 -0.33839,0.52361 -0.33839,2.38125 0,2.38125 0.14552,0 0.26276,-0.62508 0.26053,-1.38907 z m 1.15671,-0.30843 c -0.15854,-1.31534 -0.34556,-1.56406 -0.39808,-0.52942 -0.0215,0.42444 -0.0537,1.00983 -0.0714,1.30087 -0.0452,0.74192 0.13808,1.04508 0.38769,0.64122 0.11602,-0.18773 0.15283,-0.82343 0.0818,-1.41267 z m 2.0374803,-1.30362 c -0.19657,-0.19657 -0.27972,0.15547 -0.27972,1.18431 0,1.90317 0.37268,2.27766 0.47816,0.48046 0.0447,-0.76177 -0.0446,-1.51092 -0.19844,-1.66477 z m 2.79055,2.01444 c -0.0879,-0.0879 -0.15046,0.0684 -0.13897,0.34726 0.0127,0.30823 0.0754,0.37092 0.15985,0.15986 0.0764,-0.191 0.067,-0.4192 -0.0209,-0.50712 z m -1.0315,-0.79926 c -0.0922,-0.88717 -0.0149,-1.38753 0.26261,-1.70139 0.35552,-0.40205 0.34016,-0.43076 -0.16036,-0.29987 -0.48252,0.12618 -0.55352,0.34443 -0.55352,1.70139 0,0.95527 0.11238,1.55664 0.2909,1.55664 0.18898,0 0.24517,-0.44035 0.16037,-1.25677 z m 4.08041,0.92604 c 0.0186,-0.1819 0.0733,-0.62839 0.12157,-0.99219 0.12577,-0.94758 -0.15868,-2.64583 -0.44318,-2.64583 -0.13273,0 -0.24132,0.89297 -0.24132,1.98437 0,1.14653 0.11171,1.98438 0.26458,1.98438 0.14552,0 0.27978,-0.14883 0.29835,-0.33073 z m 2.0829,-1.07724 c 0,-0.8704 -0.19846,-1.80481 -0.5198,-2.44739 l -0.51981,-1.03943 0.14522,2.11666 c 0.16669,2.42971 0.24463,2.77813 0.6215,2.77813 0.15328,0 0.27289,-0.61715 0.27289,-1.40797 z m -9.10056,0.15671 c -0.0879,-0.0879 -0.15046,0.0683 -0.13897,0.34726 0.0127,0.30823 0.0754,0.37092 0.15985,0.15986 0.0764,-0.191 0.067,-0.4192 -0.0209,-0.50712 z m -2.1200303,-3.80849 c 0.0744,-1.07344 0.18875,-2.11049 0.25414,-2.30455 0.0664,-0.19713 -0.0271,-0.30472 -0.21202,-0.2438 -0.32896,0.1084 -0.74359,3.66712 -0.51013,4.37836 0.20622,0.62827 0.33163,0.13791 0.46801,-1.83001 z m 1.38782,-0.53365 c 0.0277,-1.03245 0.1249,-1.99768 0.21593,-2.14497 0.091,-0.14728 10e-5,-0.21332 -0.20206,-0.14676 -0.41974,0.13819 -0.6793,1.88907 -0.53663,3.61989 0.1388,1.68395 0.46405,0.85761 0.52276,-1.32816 z m 30.9453003,1.82217 c 0.22325,-0.269 0.25419,-1.41633 0.0788,-2.923 -0.0291,-0.25014 -1.69344,-0.97869 -2.23573,-0.97869 -0.20679,0 -0.35944,0.19555 -0.33923,0.43455 0.0639,0.75547 -0.57758,0.68865 -0.98686,-0.1028 -0.40649,-0.78607 -2.14059,-1.57109 -2.43133,-1.10065 -0.0815,0.13185 0.10401,0.23974 0.41223,0.23974 0.30822,0 0.48681,0.11906 0.39687,0.26458 -0.0899,0.14552 -0.52757,0.26458 -0.97251,0.26458 -0.67873,0 -0.78672,-0.0852 -0.67062,-0.52916 0.11838,-0.45269 0.008,-0.52917 -0.76289,-0.52917 -0.983,0 -0.99878,0.0332 -0.91109,1.91823 0.0357,0.76769 -0.054,1.25677 -0.23044,1.25677 -0.1589,0 -0.28891,-0.41834 -0.28891,-0.92963 0,-0.5113 -0.14882,-1.16978 -0.33073,-1.46328 -0.27119,-0.4376 -0.26177,-0.57655 0.0523,-0.77198 0.29436,-0.18314 0.20245,-0.27903 -0.39687,-0.41403 -0.42898,-0.0966 -1.48107,-0.36326 -2.33799,-0.5925 -1.48018,-0.39599 -1.57602,-0.3922 -1.91822,0.0758 -0.4124,0.56399 -0.47668,2.43189 -0.11632,3.37973 0.16365,0.43041 0.52792,0.69828 1.10712,0.81412 0.47478,0.095 1.04964,0.33574 1.27747,0.53509 0.22783,0.19934 0.69388,0.4478 1.03567,0.55214 0.55361,0.169 0.60081,0.12473 0.43249,-0.40561 -0.15495,-0.4882 -0.10816,-0.5643 0.2601,-0.42299 0.24697,0.0948 0.67743,0.17232 0.95657,0.17232 0.63499,0 0.66765,0.44852 0.0445,0.61136 -0.28826,0.0753 -0.19152,0.13259 0.2563,0.15169 l 0.71932,0.0307 -0.16322,-2.11667 c -0.14686,-1.90447 -0.11663,-2.11667 0.30155,-2.11667 0.34381,0 0.43121,0.15494 0.3358,0.59531 -0.0709,0.32743 0.005,1.25016 0.16976,2.05053 0.25735,1.25369 0.39032,1.46747 0.96018,1.54375 0.3638,0.0487 0.77457,0.19753 0.91281,0.33073 0.36601,0.35265 1.55793,0.29626 2.09889,-0.0993 0.40166,-0.29371 0.42124,-0.44195 0.13988,-1.05946 -0.17992,-0.39488 -0.24627,-0.79882 -0.14744,-0.89764 0.32463,-0.32463 0.73916,0.36286 0.88803,1.4728 0.14182,1.05735 0.17626,1.09037 1.13735,1.09037 0.54511,0 1.11496,-0.14925 1.26634,-0.33165 z m -11.12451,-4.45253 c -0.71268,-0.41436 -0.55046,-0.77207 0.35013,-0.77207 0.61685,0 0.7925,0.10648 0.7276,0.44109 -0.10837,0.55878 -0.48628,0.67484 -1.07773,0.33098 z m -18.45469,2.40293 c 0,-1.23473 -0.11024,-2.11667 -0.26458,-2.11667 -0.15434,0 -0.26458,0.88194 -0.26458,2.11667 0,1.23472 0.11024,2.11666 0.26458,2.11666 0.15434,0 0.26458,-0.88194 0.26458,-2.11666 z m 2.43393,-0.19844 c 0.0921,-1.99949 -0.0425,-2.64757 -0.49264,-2.37106 -0.2872,0.17643 -0.11954,4.42158 0.17462,4.42158 0.12295,0 0.26605,-0.92274 0.31802,-2.05052 z m -1.1395,-0.22222 c -0.0747,-2.30665 -0.50068,-2.16057 -0.50068,0.17169 0,1.23696 0.0938,1.80972 0.2778,1.69601 0.15722,-0.0972 0.25396,-0.90776 0.22288,-1.8677 z m 3.09397,-2.68747 c -0.37736,-0.37737 -0.67625,0.64934 -0.68018,2.33642 -0.006,2.50899 0.35322,2.50704 0.62842,-0.003 0.12958,-1.18204 0.15287,-2.2319 0.0518,-2.33301 z m 5.40966,1.89669 c 0.0774,-1.15272 0.0887,-2.32182 0.025,-2.598 -0.10997,-0.47728 -0.13269,-0.47891 -0.45878,-0.033 -0.19141,0.26177 -0.52039,0.40114 -0.74418,0.31526 -0.56129,-0.21539 -0.67045,0.0642 -0.80011,2.04965 -0.0908,1.39094 -0.0371,1.74207 0.26643,1.74207 0.28788,0 0.3802,-0.38169 0.3802,-1.57189 0,-0.86453 0.11906,-1.64547 0.26458,-1.7354 0.29051,-0.17955 0.36254,0.5495 0.27096,2.74284 -0.0456,1.09207 0.0232,1.39273 0.2979,1.30211 0.24286,-0.0801 0.40224,-0.78863 0.49795,-2.21368 z m -4.24181,0.1531 c 0,-1.05833 -0.11339,-1.85208 -0.26458,-1.85208 -0.15119,0 -0.26458,0.79375 -0.26458,1.85208 0,1.05834 0.11339,1.85209 0.26458,1.85209 0.15119,0 0.26458,-0.79375 0.26458,-1.85209 z m 1.53697,0.1505 c 0.0614,-0.9492 -0.004,-1.23464 -0.26459,-1.14794 -0.20415,0.068 -0.37928,0.63329 -0.42659,1.37692 -0.0601,0.94403 0.007,1.23294 0.26459,1.14794 0.20248,-0.0667 0.37858,-0.63508 0.42659,-1.37692 z m 22.71156,-2.33331 c -0.0918,-0.76398 -0.1697,-1.74625 -0.17319,-2.18281 -0.005,-0.59607 -0.0679,-0.69635 -0.25366,-0.40267 -0.13602,0.2151 -0.64021,0.52271 -1.12043,0.68358 -0.77326,0.25903 -0.88226,0.4152 -0.95304,1.36543 -0.0782,1.04923 -0.0548,1.08163 1.05833,1.46588 0.62604,0.21611 1.24414,0.40794 1.37355,0.42629 0.12974,0.0184 0.16045,-0.58974 0.0684,-1.3557 z m -22.66103,0.33073 c 0,-0.14552 -0.17859,-0.26458 -0.39687,-0.26458 -0.21828,0 -0.39688,0.11906 -0.39688,0.26458 0,0.14552 0.1786,0.26458 0.39688,0.26458 0.21828,0 0.39687,-0.11906 0.39687,-0.26458 z m -9.5213803,-0.99219 c 0.005,-1.39745 0.25897,-2.18281 0.70563,-2.18281 0.25514,0 0.36397,0.24283 0.32611,0.7276 -0.1009,1.292 0.0165,2.18282 0.28756,2.18282 0.14552,0 0.2645803,-0.34261 0.2645803,-0.76136 0,-0.41874 0.1786,-0.90957 0.39688,-1.09073 0.21828,-0.18116 0.38306,-0.52316 0.36618,-0.76 -0.0259,-0.36331 -0.0496,-0.35825 -0.15169,0.0324 -0.16143,0.61774 -0.61137,0.59291 -0.61137,-0.0337 0,-0.74885 -0.6497903,-1.19589 -1.0964403,-0.75433 -0.19732,0.19507 -0.56195,0.43158 -0.81028,0.52558 -0.34511,0.13064 -0.42664,0.40772 -0.34597,1.17582 0.058,0.5527 0.1124,1.21327 0.12078,1.46793 0.0306,0.92967 0.54452,0.43344 0.54803,-0.52917 z m 28.9901803,-0.22221 c 0.18308,-0.97592 -0.3383,-2.04814 -1.22582,-2.52088 -0.95024,-0.50615 -5.03095,-1.55326 -6.46902,-1.65995 -0.87312,-0.0648 -1.8337,-0.19525 -2.13461,-0.28994 -0.51567,-0.16228 -0.54909,-0.0648 -0.58175,1.69653 -0.0339,1.82716 -0.0188,1.87208 0.67939,2.02097 0.39273,0.0838 1.19428,0.32262 1.78123,0.53081 0.58695,0.20819 1.45434,0.37853 1.92754,0.37853 0.76863,0 0.83116,-0.0546 0.58647,-0.51178 -0.15064,-0.28147 -0.27389,-0.93405 -0.27389,-1.45017 0,-0.78007 0.1115,-0.96637 0.66086,-1.10426 1.00714,-0.25277 1.52545,0.0434 1.31202,0.7498 -0.29503,0.9764 -0.6132,1.13483 -0.88971,0.44303 l -0.25588,-0.64017 -0.0168,0.62148 c -0.0241,0.89544 0.78482,2.47484 1.18834,2.31999 0.18569,-0.0713 0.67511,-0.0283 1.08761,0.0954 0.41249,0.12373 1.13155,0.23519 1.5979,0.24769 0.76964,0.0206 0.86435,-0.0649 1.02609,-0.92707 z m -6.7688,-2.88664 c 0,-0.21828 0.11907,-0.39688 0.26459,-0.39688 0.14552,0 0.26458,0.1786 0.26458,0.39688 0,0.21828 -0.11906,0.39687 -0.26458,0.39687 -0.14552,0 -0.26459,-0.17859 -0.26459,-0.39687 z m -18.98385,2.60289 c -0.1819,-0.0734 -0.47956,-0.0734 -0.66146,0 -0.1819,0.0734 -0.0331,0.13346 0.33073,0.13346 0.3638,0 0.51263,-0.0601 0.33073,-0.13346 z m 7.70836,-1.34612 c 0.13089,-0.86961 0.085,-1.12448 -0.20245,-1.12448 -0.51624,0 -0.69205,0.59388 -0.50927,1.72028 0.18897,1.16444 0.48395,0.9175 0.71172,-0.5958 z m -5.51709,0.70097 c 0.21749,-0.68528 -0.31422,-1.34265 -0.6485,-0.80176 -0.2508,0.40579 -0.0712,1.35756 0.2562,1.35756 0.11874,0 0.29527,-0.25011 0.3923,-0.5558 z m 1.97592,-0.13397 c 0,-0.4794 0.1119,-0.64682 0.36693,-0.54896 0.2574,0.0988 0.32716,-0.0112 0.23372,-0.36857 -0.16136,-0.61703 -0.18717,-0.61913 -1.00684,-0.0821 -0.94644,0.62013 -0.82951,1.55929 0.20775,1.66847 0.10914,0.0115 0.19844,-0.2895 0.19844,-0.66888 z m 5.23729,-1.14186 c -0.0429,-0.49808 -0.22675,-0.95448 -0.40865,-1.01424 -0.2398,-0.0788 -0.32841,0.31567 -0.32231,1.43476 0.008,1.43527 0.0365,1.50633 0.40865,1.01423 0.22637,-0.29928 0.36638,-0.92257 0.32231,-1.43475 z m 5.03476,1.22643 c 0.16272,-0.19605 0.23843,-1.06615 0.17841,-2.0502 -0.0827,-1.35545 -0.22282,-1.80558 -0.67648,-2.17293 -0.3147,-0.25484 -0.72301,-0.46334 -0.90736,-0.46334 -0.18434,0 -0.48338,-0.17859 -0.66454,-0.39687 -0.50045,-0.60301 0.31556,-0.51663 2.2282,0.23587 2.94806,1.15988 2.79888,1.17759 2.79888,-0.33228 0,-1.25352 0.0346,-1.31901 0.66189,-1.25213 0.76273,0.0813 1.22939,0.4225 0.57788,0.4225 -0.46635,0 -0.86289,1.07359 -0.62527,1.69283 0.0783,0.2041 0.65672,0.45304 1.28531,0.55319 0.6286,0.10015 1.77988,0.36205 2.55842,0.582 1.77843,0.50244 2.00866,0.30664 1.76056,-1.49729 -0.21227,-1.54339 -0.39649,-1.67473 -2.7792,-1.98151 -0.80037,-0.10304 -2.11005,-0.34572 -2.91042,-0.53927 -0.80036,-0.19356 -2.497,-0.50619 -3.77031,-0.69475 -2.75637,-0.40817 -2.86673,-0.63865 -1.12448,-2.34854 1.09845,-1.07805 1.47949,-1.80242 0.99219,-1.886201 -1.60981,-0.27677 -4.35202,-0.0608 -3.77285,0.297141 0.19328,0.11945 0.50192,0.15944 0.68585,0.0888 0.18394,-0.0706 0.45978,0.10589 0.61299,0.39215 0.2286,0.42715 0.18484,0.54499 -0.24403,0.65714 -0.28742,0.0752 -0.60184,0.008 -0.69871,-0.14832 -0.10346,-0.16741 -0.26876,-0.0346 -0.40065,0.32197 -0.17622,0.47637 -0.0891,0.73245 0.40488,1.19027 0.77036,0.71394 1.45627,2.58336 1.00327,2.73435 -0.33597,0.112 -0.40997,0.91972 -0.11159,1.2181 0.20153,0.20153 0.13388,3.94979 -0.0849,4.70377 -0.0958,0.33033 4.5e-4,0.40751 0.38352,0.30733 0.28133,-0.0736 0.85177,0.0506 1.26765,0.27592 0.93609,0.50718 1.02027,0.51272 1.37089,0.0902 z m 8.24878,-3.62813 c 0,-0.14553 0.11906,-0.26459 0.26458,-0.26459 0.14552,0 0.26459,0.11906 0.26459,0.26459 0,0.14552 -0.11907,0.26458 -0.26459,0.26458 -0.14552,0 -0.26458,-0.11906 -0.26458,-0.26458 z m -22.225,2.64583 c 0,-0.93079 -0.39705,-1.05645 -0.62699,-0.19844 -0.23463,0.87552 -0.20757,0.99219 0.23012,0.99219 0.26458,0 0.39687,-0.26458 0.39687,-0.79375 z m 5.92482,0.11065 c 0.226,-0.58895 0.20846,-0.63982 -0.22066,-0.63982 -0.46741,0 -0.76625,0.43541 -0.54478,0.79375 0.24136,0.39055 0.58286,0.32187 0.76544,-0.15393 z m 21.77997,-0.63982 c 0.29421,-0.35278 0.36049,-0.35278 0.59655,0 0.16821,0.2514 0.26704,0.27906 0.26961,0.0755 0.002,-0.17678 -0.24427,-0.45432 -0.54778,-0.61675 -0.3035,-0.16243 -0.48313,-0.36403 -0.39917,-0.44799 0.084,-0.084 0.0201,-0.31244 -0.14202,-0.50773 -0.21726,-0.26178 -0.21328,-0.45316 0.0151,-0.72839 0.19424,-0.23404 0.21343,-0.4329 0.0514,-0.53301 -0.14211,-0.0878 -0.33451,0.0802 -0.42756,0.37332 -0.29698,0.93573 -0.66267,0.57283 -0.66267,-0.65762 0,-0.65484 -0.11906,-1.19062 -0.26458,-1.19062 -0.14552,0 -0.26458,0.35719 -0.26458,0.79375 0,1.0767 -0.52111,1.0152 -0.56047,-0.0662 l -0.0313,-0.85989 -0.16973,0.79375 c -0.20793,0.97237 -0.71965,0.8103 -0.62655,-0.19844 0.044,-0.47668 -0.0596,-0.7276 -0.30026,-0.7276 -0.29067,0 -0.33895,0.37306 -0.23116,1.78593 0.14766,1.93551 0.38989,2.4474 1.15812,2.4474 0.27323,0 0.49677,0.15478 0.49677,0.34396 0,0.18917 0.13435,0.4783 0.29854,0.64249 0.33125,0.33125 1.1445,-0.006 1.74167,-0.72187 z m -24.91966,-0.47807 c -0.0815,-0.0815 -0.29496,-1.6e-4 -0.47444,0.18066 -0.25936,0.2613 -0.22897,0.2917 0.14812,0.14811 0.26093,-0.0994 0.40778,-0.2473 0.32632,-0.32877 z m -6.8858203,-0.58083 c 0.0927,-0.15006 0.59948,-0.19551 1.16735,-0.1047 1.0914903,0.17454 1.5150303,-0.26776 1.2017203,-1.25492 -0.23293,-0.73389 -1.7079603,-0.68733 -1.7079603,0.0539 0,0.41415 -0.14359,0.52584 -0.59532,0.46302 -0.44729,-0.0622 -0.61633,0.0652 -0.67986,0.51254 -0.0856,0.60277 0.3131,0.81713 0.61407,0.33016 z m 5.8990203,-1.19098 c 0.0807,-1.49423 -0.22685,-1.8616 -0.95166,-1.13678 -0.41897,0.41896 -0.40897,2.24733 0.0132,2.41768 0.73076,0.29487 0.86309,0.11425 0.93843,-1.2809 z m 3.89144,-0.43639 c -0.0694,-1.04088 -0.15761,-1.91974 -0.196,-1.95301 -0.0384,-0.0333 -0.45676,-0.002 -0.92971,0.0705 -0.85792,0.13067 -0.85989,0.13454 -0.85989,1.68844 0,1.20802 0.089,1.55747 0.39687,1.55747 0.38427,0 0.54398,-0.80442 0.46085,-2.32114 -0.0181,-0.33074 0.0791,-0.53207 0.21612,-0.4474 0.13699,0.0847 0.24907,0.78191 0.24907,1.54943 0,0.76752 0.0794,1.47487 0.17639,1.57188 0.47244,0.47244 0.60179,0.016 0.4863,-1.71613 z m 1.40988,0.41527 c 0,-0.66698 0.0695,-1.28213 0.15434,-1.36702 0.0849,-0.0849 0.15434,0.098 0.15434,0.40648 0,0.97027 0.57512,1.90891 1.16695,1.90457 0.3545,-0.003 0.43927,-0.0762 0.23628,-0.20529 -0.17591,-0.11184 -0.35225,-0.95299 -0.39687,-1.89318 -0.0806,-1.69901 -0.53697,-2.41338 -0.82879,-1.29746 -0.15418,0.5896 -0.15515,0.58943 -0.71435,-0.12148 -0.30798,-0.39153 -0.70014,-0.70247 -0.87148,-0.69098 -0.21868,0.0147 -0.21295,0.0607 0.0192,0.15434 0.2219,0.0895 0.33073,0.76466 0.33073,2.05168 0,1.05503 0.0794,1.99761 0.17639,2.09462 0.4069,0.4069 0.57326,0.10617 0.57326,-1.03628 z m 21.47535,0.94809 c 0,-0.14553 -0.11906,-0.26459 -0.26458,-0.26459 -0.14552,0 -0.26459,0.11906 -0.26459,0.26459 0,0.14552 0.11907,0.26458 0.26459,0.26458 0.14552,0 0.26458,-0.11906 0.26458,-0.26458 z m -29.10417,-1.03003 c 0,-0.42099 -0.16805,-0.82993 -0.37344,-0.90875 -0.30232,-0.11601 -0.32752,0.0168 -0.13229,0.69755 0.13263,0.46247 0.24115,0.87141 0.24115,0.90875 0,0.0373 0.0595,0.0679 0.13229,0.0679 0.0728,0 0.13229,-0.34445 0.13229,-0.76544 z m 3.70417,-0.84411 c 0,-0.74671 -0.10214,-1.04633 -0.33073,-0.97014 -0.1819,0.0606 -0.30096,0.18962 -0.26458,0.28664 0.0364,0.097 0.0661,0.53357 0.0661,0.97014 0,0.43656 0.11907,0.79375 0.26459,0.79375 0.14552,0 0.26458,-0.48618 0.26458,-1.08039 z m 6.71853,-0.37482 c 0.17818,-0.88562 -0.15231,-1.62007 -0.60353,-1.3412 -0.32056,0.19811 -0.39408,1.43441 -0.12674,2.13109 0.21462,0.5593 0.52675,0.22169 0.73027,-0.78989 z m 20.3223,0.0752 c 0.82151,-0.87944 0.57749,-1.41471 -0.28791,-0.63153 -0.57604,0.5213 -0.82375,0.53798 -0.82375,0.0555 0,-0.20271 -0.17253,-0.43478 -0.3834,-0.51569 -0.27409,-0.10518 -0.3354,-0.0189 -0.21505,0.30242 0.14691,0.39229 0.1115,0.40329 -0.27806,0.0864 -0.70267,-0.57158 -0.52127,-0.0786 0.2812,0.76413 0.40018,0.42028 0.76913,0.76987 0.81988,0.77688 0.0508,0.007 0.44995,-0.37014 0.88709,-0.83809 z M 7.6277267,17.272678 c 0.49694,-1.09065 0.34974,-1.38371 -0.2231,-0.44418 -0.58722,0.96313 -0.62964,1.11809 -0.30606,1.11809 0.12216,0 0.36028,-0.30326 0.52916,-0.67391 z m 1.72261,-0.38442 c 0.24903,-0.4992 0.2901,-0.79375 0.11066,-0.79375 -0.15692,0 -0.0924,-0.21311 0.14326,-0.47357 0.3978603,-0.43963 0.39111,-0.47638 -0.0943,-0.51294 -0.41202,-0.031 -0.51194,0.11138 -0.47148,0.672 0.0282,0.39126 -0.0937,0.97927 -0.27093,1.30669 -0.18092,0.33422 -0.21064,0.59532 -0.0678,0.59532 0.13998,0 0.4327,-0.35719 0.65049,-0.79375 z m 1.4561703,0.44349 c 0.21227,-0.25577 0.20674,-0.4342 -0.0205,-0.66146 -0.46621,-0.46621 -0.6594,-0.38155 -0.7992903,0.35026 -0.13871,0.72557 0.3286703,0.90299 0.8198103,0.3112 z m -3.9264403,-0.11277 c 0.002,-0.10914 0.069,-0.49609 0.14887,-0.85989 l 0.14526,-0.66146 -0.40408,0.66146 c -0.47762,0.78183 -0.51896,1.05833 -0.15825,1.05833 0.14552,0 0.26621,-0.0893 0.2682,-0.19844 z m 10.2503003,-0.77354 c -0.48056,-0.48056 -1.37955,-0.19405 -0.92338,0.29428 0.17112,0.18319 0.53222,0.27525 0.80245,0.20459 0.4211,-0.11012 0.43838,-0.18141 0.12093,-0.49887 z m -2.31642,0.16262 c 0,-0.15411 -0.11906,-0.20662 -0.26458,-0.11668 -0.33903,0.20953 -0.33903,0.39688 0,0.39688 0.14552,0 0.26458,-0.12609 0.26458,-0.2802 z m 21.51154,-0.92405 c 0.47646,-0.65162 0.41397,-1.177 -0.14,-1.177 -0.16118,0 -0.22361,0.0694 -0.13872,0.15434 0.0849,0.0849 -0.0739,0.38254 -0.35278,0.66145 -0.56674,0.56674 -0.68825,1.35833 -0.17639,1.14903 0.1819,-0.0744 0.54545,-0.4289 0.80789,-0.78782 z m -23.5306,0.35437 c -0.0865,-0.14001 -0.37432,-0.19781 -0.63954,-0.12845 -0.26587,0.0695 -0.54552,-0.0388 -0.6233,-0.24154 -0.0776,-0.2022 -0.28232,-0.36763 -0.45497,-0.36763 -0.19411,0 -0.14257,0.1893 0.13507,0.49609 0.45172,0.49914 1.87631,0.71654 1.58274,0.24153 z m 21.76832,-0.0762 c 0.35278,-0.35277 0.33598,-0.39687 -0.15119,-0.39687 -0.31078,0 -0.54807,0.17183 -0.54807,0.39687 0,0.21829 0.068,0.39688 0.15119,0.39688 0.0832,0 0.32979,-0.17859 0.54807,-0.39688 z m 4.42351,0 c -0.15914,-0.4147 -0.88943,-0.55953 -0.88943,-0.17638 0,0.32324 0.3041,0.57326 0.69725,0.57326 0.1975,0 0.27949,-0.16934 0.19218,-0.39688 z m 1.2913,-0.31295 c -0.4718,-0.19251 -0.85782,-0.48859 -0.85782,-0.65794 0,-0.16936 -0.069,-0.23888 -0.15343,-0.15449 -0.0844,0.0844 0.0401,0.44884 0.27671,0.8099 0.31615,0.48251 0.58413,0.61621 1.01124,0.50452 0.53566,-0.14008 0.51402,-0.17934 -0.2767,-0.50199 z m 3.35162,-0.45839 c -0.22173,-0.20739 -0.34047,-0.19525 -0.4281,0.0437 -0.16933,0.4618 -0.60634,0.41413 -0.60634,-0.0662 0,-0.21828 -0.19317,-0.39687 -0.42927,-0.39687 -0.3546,0 -0.37105,0.0701 -0.0946,0.40327 0.4346,0.52367 0.12787,0.83039 -0.39579,0.39579 -0.45697,-0.37926 -0.55676,-5e-5 -0.11598,0.44073 0.20667,0.20667 0.5805,0.17212 1.3321,-0.12311 0.77178,-0.30317 0.96462,-0.4854 0.73796,-0.6974 z m -28.801,-0.465 c -1.09055,-0.96778 -1.11097,-1.01261 -0.4612,-1.01261 0.37393,0 0.76364,-0.13555 0.86602,-0.30121 0.13423,-0.21718 -0.10129,-0.2475 -0.84428,-0.10869 -0.56674,0.10588 -1.06554,0.22692 -1.10845,0.26898 -0.0429,0.042 0.25474,0.43488 0.66146,0.87294 0.40671,0.43806 0.89544,0.99096 1.08606,1.22866 0.19063,0.23771 0.48044,0.34947 0.64403,0.24837 0.1871,-0.11564 -0.12585,-0.55945 -0.84364,-1.19644 z m 3.95406,1.14779 c 0,-0.12147 -0.35718,-0.53911 -0.79375,-0.92809 -0.9203,-0.81999 -1.08001,-1.40413 -0.26458,-0.96773 0.29104,0.15576 0.52917,0.43849 0.52917,0.6283 0,0.29356 0.63361,0.73029 1.71979,1.18537 0.14552,0.061 -0.31922,-0.471 -1.03275,-1.18214 -0.80219,-0.79951 -1.48381,-1.2614 -1.78594,-1.21021 -0.78905,0.13367 -0.55949,-0.40414 0.239,-0.55991 0.51323,-0.10012 0.90269,0.021 1.32187,0.41118 0.32685,0.30421 0.67412,0.47326 0.77171,0.37567 0.0976,-0.0976 0.0524,-0.17743 -0.10039,-0.17743 -0.15281,0 -0.3401,-0.23812 -0.41621,-0.52916 -0.0908,-0.34711 -0.36089,-0.52917 -0.78512,-0.52917 -0.86689,0 -2.31321,0.51956 -2.31321,0.83097 0,0.3224 2.38109,2.8732 2.68204,2.8732 0.1256,0 0.22837,-0.0994 0.22837,-0.22085 z m 3.43959,0.10067 c 0,-0.21064 -2.45929,-2.00665 -2.58102,-1.88491 -0.22859,0.22858 0.86894,1.45943 1.30863,1.4676 0.24607,0.005 0.52099,0.12738 0.61093,0.2729 0.16303,0.2638 0.66146,0.37261 0.66146,0.14441 z m 11.03165,-0.73972 c 0.5213,-0.57409 1.04688,-2.05052 0.72995,-2.05052 -0.39071,0 -1.17843,0.5803 -1.1799,0.8692 -7.9e-4,0.17679 -0.17243,0.64885 -0.38118,1.04903 -0.48349,0.92683 0.0348,1.00932 0.83113,0.13229 z m -17.21328,-0.63139 c -0.37341,-0.40271 -0.74445,-0.66667 -0.82453,-0.58658 -0.0801,0.0801 0.17189,0.46311 0.55994,0.85116 0.9191,0.9191 1.14899,0.68921 0.26459,-0.26458 z m 14.96249,0.5168 c -0.191,-0.0764 -0.4192,-0.067 -0.50712,0.0209 -0.0879,0.0879 0.0684,0.15046 0.34726,0.13897 0.30823,-0.0127 0.37092,-0.0754 0.15986,-0.15985 z m -17.72709,-0.26459 c -0.19099,-0.0764 -0.4192,-0.067 -0.50712,0.0209 -0.0879,0.0879 0.0684,0.15045 0.34727,0.13897 0.30822,-0.0127 0.37092,-0.0754 0.15985,-0.15986 z m 13.51029,0.006 c -0.1819,-0.0734 -0.47956,-0.0734 -0.66146,0 -0.1819,0.0734 -0.0331,0.13346 0.33073,0.13346 0.3638,0 0.51263,-0.0601 0.33073,-0.13346 z m 18.45469,-0.0893 c 0,-0.14552 -0.26789,-0.26276 -0.59531,-0.26053 -0.4814,0.003 -0.51937,0.0531 -0.19844,0.26053 0.51296,0.3315 0.79375,0.3315 0.79375,0 z M 5.8137967,14.506278 c 0.68852,0.19746 0.82257,0.18449 0.58179,-0.0563 -0.20029,-0.20028 -0.31289,-1.2936 -0.31289,-3.038091 0,-1.6404215 -0.10532,-2.7252115 -0.26458,-2.7252115 -0.14552,0 -0.26458,0.35719 -0.26458,0.79375 0,0.4365704 -0.11907,0.7937505 -0.26459,0.7937505 -0.14552,0 -0.26458,-0.2311 -0.26458,-0.5135505 0,-0.62892 -0.42094,-0.93395 -0.6894,-0.49957 -0.22198,0.35917 -0.1566,4.9478625 0.0759,5.3239825 0.0863,0.13971 0.22681,0.12014 0.32942,-0.0459 0.124,-0.20064 0.4534,-0.21072 1.07356,-0.0329 z m -0.92772,-1.06681 c -0.24482,-0.39612 0.13956,-2.401981 0.42632,-2.224751 0.31942,0.19741 0.31221,2.499051 -0.008,2.499051 -0.13693,0 -0.32526,-0.12344 -0.41849,-0.2743 z m 24.7695303,0.49218 c 0.3253,-0.60781 0.22285,-1.59366 -0.17934,-1.72587 -0.15766,-0.0518 -0.43329,0.35557 -0.61251,0.90532 -0.17922,0.54975 -0.38445,1.139 -0.45606,1.30945 -0.22201,0.52839 0.949,0.0696 1.24791,-0.4889 z M 3.5203467,9.2378955 c -0.31773,-0.41958 -0.43179,0.7484504 -0.33374,3.4175325 l 0.0729,1.98438 0.17216,-2.64584 c 0.0947,-1.455202 0.13459,-2.6954425 0.0887,-2.7560725 z m 3.68168,3.3513925 c -0.1314,-2.8450825 -0.26013,-3.0183325 -0.29488,-0.39688 -0.0169,1.27331 0.0625,2.31511 0.17639,2.31511 0.1139,0 0.16722,-0.86321 0.11849,-1.91823 z m 4.7015103,1.65364 c 0.21828,-0.14106 0.27781,-0.25648 0.13229,-0.25648 -0.14552,0 -0.44318,0.11542 -0.66146,0.25648 -0.21828,0.14107 -0.27781,0.25648 -0.13229,0.25648 0.14552,0 0.44318,-0.11541 0.66146,-0.25648 z m 15.61041,0 c 0,-0.14552 -0.32742,-0.26276 -0.7276,-0.26053 -0.56699,0.003 -0.63999,0.0607 -0.33073,0.26053 0.51767,0.33454 1.05833,0.33454 1.05833,0 z m 14.2875,-0.27581 c -0.448,-0.29 -2.87425,-0.26134 -3.05809,0.0361 -0.0658,0.1065 0.68461,0.19975 1.66764,0.20721 1.24807,0.009 1.66759,-0.0639 1.39045,-0.24334 z M 8.0568367,11.401677 c -0.0881,-1.271651 -0.21109,-2.3630615 -0.27338,-2.4253515 -0.17694,-0.17695 -0.13281,3.8494525 0.0473,4.3189225 0.32493,0.84674 0.38245,0.36483 0.22604,-1.893571 z m 19.5293103,1.800011 c 0.0814,-0.31146 -0.025,-0.57305 -0.2716,-0.66769 -0.56303,-0.21606 -0.79538,0.0908 -0.3221,0.42536 0.32333,0.22858 0.31228,0.2505 -0.0653,0.12946 -0.25,-0.0801 -0.51934,-0.0408 -0.59855,0.0873 -0.12203,0.19745 0.20079,0.36861 0.9561,0.50694 0.0922,0.0169 0.22784,-0.19974 0.30149,-0.48138 z m 4.42572,0.24763 c 0,-0.30786 -0.98584,-0.60534 -1.32055,-0.39848 -0.50311,0.31094 -0.26672,0.5824 0.5268,0.60497 0.43656,0.0124 0.79375,-0.0805 0.79375,-0.20649 z m 12.71864,0.017 c -0.29749,-0.18827 -0.36393,-0.8592 -0.31122,-3.143272 0.0805,-3.4888385 0.18021,-3.3540785 -2.55169,-3.4492585 -0.76602,-0.0267 -1.12448,-0.1566591 -1.12448,-0.4077393 0,-0.52209 0.41841,-0.61939 2.4474,-0.5691 0.98226,0.0243 1.78593,-0.0501 1.78593,-0.16546 0,-0.27793 -1.21261,-0.57138 -2.22917,-0.53946 -0.44744,0.0141 -1.11119,0.0297 -1.47499,0.0348 -0.3638,0.005 -0.92529,0.14875 -1.24775,0.31923 -0.45031,0.23807 -0.67498,0.23636 -0.96864,-0.007 -0.26226,-0.21766 -0.43655,-0.2296 -0.55495,-0.038 -0.0949,0.15362 0.0433,0.34768 0.30717,0.43125 1.4249,0.45126 1.72167,0.65439 1.44431,0.9885693 -0.15397,0.185529 -0.31491,1.343418 -0.35765,2.573098 -0.0841,2.4202225 -0.57604,2.9228625 -0.63446,0.6482705 -0.0593,-2.3082605 -0.0985,-2.4808305 -0.39478,-1.7392905 -0.1411,0.35307 -0.23891,0.82932 -0.21735,1.05833 0.10421,1.1069105 -0.0453,2.1528725 -0.28632,2.0038815 -0.14552,-0.0899 -0.26458,-0.0445 -0.26458,0.10106 0,0.593671 0.48939,0.726301 2.91041,0.788731 0.94589,0.0244 1.89494,0.15512 2.10901,0.2905 0.64292,0.4066 0.17541,0.54316 -0.87067,0.25433 -0.53947,-0.14896 -1.12552,-0.18143 -1.30233,-0.0722 -0.18907,0.11685 0.27551,0.32527 1.12803,0.50605 1.86642,0.39579 3.1777,0.46137 2.65877,0.13297 z m -3.811,-2.310171 c -0.28154,-0.28154 -0.20372,-3.7442415 0.0882,-3.9246605 0.16803,-0.10384 0.26459,0.614619 0.26459,1.968759 0,2.1383815 -0.026,2.2826515 -0.35278,1.9559015 z m -29.89999,1.925101 c 0.0231,-0.0159 -0.022,-0.82038 -0.10019,-1.787711 l -0.14222,-1.7587815 -0.8258503,0.0235 -0.82585,0.0235 -0.0453,1.6010015 c -0.0527,1.861951 0.21555,2.330091 1.2000603,2.094381 0.38353,-0.0918 0.71624,-0.17997 0.73935,-0.19588 z m 10.48314,-0.15149 c 0.0747,-0.28569 -0.006,-0.63728 -0.1797,-0.78131 -0.23233,-0.19281 -0.30389,-0.0733 -0.27139,0.4533 0.0651,1.05524 0.22963,1.17485 0.45109,0.32801 z m 18.71129,0.0917 c 0,-0.0558 -0.29765,-0.10144 -0.66145,-0.10144 -0.36381,0 -0.66146,0.10255 -0.66146,0.22789 0,0.12534 0.29765,0.17099 0.66146,0.10145 0.3638,-0.0696 0.66145,-0.1721 0.66145,-0.2279 z m -2.94746,-2.777712 c 0.033,-2.8688405 0.0202,-2.9372805 -0.52422,-2.7949305 -0.30692,0.0803 -0.75268,0.0461 -0.99057,-0.0759 -0.2379,-0.121989 -0.90879,-0.324668 -1.49087,-0.450398 -0.9855,-0.2128691 -1.05385,-0.2864593 -0.99321,-1.0693393 0.0358,-0.4624 -0.0546,-0.91469 -0.20081,-1.0050796 -0.46679,-0.2884888 -1.31952,0.1518496 -1.31952,0.6813796 0,0.57395 -0.61755,0.66583 -1.70257,0.2533 -0.41084,-0.1562 -0.67868,-0.46329 -0.67868,-0.77813 0,-0.2860592 -0.12944,-0.600098 -0.28764,-0.6978676 -0.15819,-0.0978 -0.22887,-0.4024499 -0.15706,-0.6770699 0.18771,-0.7177899 -0.0118,-0.61484 -0.44258,0.2283 -0.45475,0.8901783 -0.34914,3.7602748 0.14983,4.0719048 0.18732,0.11699 1.17401,0.46415 2.19266,0.77147 3.41253,1.02955 5.89191,1.9673115 5.90709,2.2342215 0.008,0.14552 -0.12681,0.24726 -0.30019,0.22608 -0.59464,-0.0726 -6.40046,-1.9416515 -6.86008,-2.2084015 -0.25269,-0.14665 -0.80878,-0.26664 -1.23575,-0.26664 -0.90549,0 -1.04712,-0.42642 -1.04483,-3.1457773 0.002,-2.3227375 -0.17106,-2.4514575 -3.27224,-2.4346575 -1.38376,0.007 -2.71045,0.0883 -2.9482,0.17952 -0.34603,0.13278 -0.43226,0.55611 -0.43226,2.1219375 0,1.5623393 -0.0799,1.9560673 -0.39688,1.9560673 -0.21828,0 -0.39687,0.19133 -0.39687,0.42518 0,0.28526 0.1427,0.37042 0.43363,0.25878 0.37593,-0.14426 0.41181,-0.007 0.26965,1.03003 -0.0902,0.65803 -0.077,1.2101105 0.0294,1.2268405 0.10636,0.0167 1.44354,0.0758 2.9715,0.13133 1.52797,0.0555 2.92696,0.15714 3.10886,0.225861 0.54602,0.20629 0.37257,-0.346601 -0.20585,-0.656161 -1.64374,-0.8797005 1.17197,-0.8683905 4.16258,0.0167 4.00352,1.184901 4.45922,1.332631 4.833,1.566761 0.21407,0.134081 0.3218,0.311201 0.23942,0.393591 -0.16696,0.16695 -5.00494,-1.038781 -5.72565,-1.426962 -0.25258,-0.13604 -0.83913,-0.36545 -1.30344,-0.50981 -0.65995,-0.2051802 -0.8157,-0.1881602 -0.71357,0.078 0.2053,0.535031 1.03831,0.856431 4.85666,1.873862 1.95991,0.52223 3.61686,1.00291 3.68212,1.06816 0.0653,0.0653 0.26146,0.11866 0.436,0.11866 0.22568,0 0.32712,-0.8495 0.35116,-2.940852 z m -15.9543,-0.7375305 c -0.0688,-0.11137 -0.054,-0.96641 0.0329,-1.90008 0.0869,-0.9336673 0.13878,-2.1385573 0.11526,-2.6775173 -0.0319,-0.7304975 0.0893,-1.0505875 0.47584,-1.2574875 0.67123,-0.35923 1.08088,0.19824 0.47255,0.6430699 -0.35737,0.2613092 -0.39471,0.6560976 -0.23886,2.5252669 l 0.18473,2.215548 1.52135,-0.0711 c 1.19639,-0.0559 1.52136,0.0123 1.52136,0.31909 0,0.30835 -0.41508,0.39177 -1.97998,0.39791 -1.08898,0.004 -2.03629,-0.0834 -2.10512,-0.19474 z m 1.79617,-4.2585073 c 0.0521,-2.4131774 0.43684,-2.4137174 0.43684,-6.1e-4 0,1.01865 -0.10728,1.8520793 -0.2384,1.8520793 -0.13112,0 -0.22042,-0.8331593 -0.19844,-1.8514693 z m -10.52816,6.9550698 c -0.0811,-0.21141 -0.1475,-0.969951 -0.1475,-1.685652 0,-0.9991305 -0.0952,-1.3012805 -0.41023,-1.3012805 -0.33481,0 -0.38659,0.25535 -0.28167,1.3890615 0.0707,0.76399 0.13625,1.593691 0.14565,1.843781 0.0113,0.30005 0.15725,0.40093 0.42917,0.29659 0.22664,-0.087 0.3457,-0.3311 0.26458,-0.5425 z m 1.39172,-2.9955225 c -0.0884,-2.4805071 -0.0402,-3.1554473 0.21843,-3.0562073 0.18256,0.0701 0.40524,-0.1036 0.49485,-0.38592 0.17495,-0.55123 -0.0177,-1.0471992 -0.40672,-1.0471992 -0.56877,0 -0.86847,1.3755592 -0.96253,4.4177865 -0.0892,2.8848225 -0.0511,3.2551325 0.33442,3.2551325 0.38587,0 0.42222,-0.35994 0.32155,-3.1835925 z m 1.49091,2.9393625 c 0.083,-0.13432 0.47723,-0.31589 0.87603,-0.40348 0.69973,-0.153691 0.72481,-0.218691 0.71682,-1.8581522 -0.0136,-2.7898983 -0.69391,-2.7879683 -0.87159,0.002 -0.10665,1.6748112 -0.57639,2.4481922 -0.57639,0.9489612 0,-1.1313415 -0.29877,-2.4143215 -0.56224,-2.4143215 -0.12733,0 -0.23151,0.89297 -0.23151,1.9843705 0,1.789982 0.23259,2.413732 0.64888,1.740152 z m 12.36532,-0.20109 c -0.191,-0.0764 -0.4192,-0.067 -0.50712,0.0209 -0.0879,0.0879 0.0683,0.15046 0.34726,0.13897 0.30823,-0.0127 0.37092,-0.0754 0.15986,-0.15985 z m -9.31003,-4.1848925 c 0,-2.2048573 -0.10126,-3.5718648 -0.26458,-3.5718648 -0.14552,0 -0.2714,0.6846079 -0.27973,1.5213475 -0.008,0.83675 -0.0776,2.2731973 -0.15402,3.1921273 -0.14598,1.7560515 -0.028,2.4302715 0.42544,2.4302715 0.17399,0 0.27289,-1.294561 0.27289,-3.5718815 z m 19.76096,0.45994 c -0.0662,-0.25297 -0.11801,0.0163 -0.11507,0.59839 0.003,0.58209 0.0571,0.78906 0.12041,0.45994 0.0633,-0.32912 0.0609,-0.80537 -0.005,-1.05833 z m -27.84152,0.21894 c 0.084,-0.13594 0.56729,-0.17989 1.07395,-0.0977 0.8491,0.13779 0.92119,0.0969 0.92119,-0.52182 0,-0.562699 -0.0963,-0.647869 -0.59531,-0.526469 -0.32742,0.0797 -0.77391,0.288539 -0.99219,0.464179 -0.61054,0.49127 -1.2888103,0.66901 -1.4650103,0.3839 -0.18124,-0.29324 -0.65165,-0.0795 -0.65165,0.29607 0,0.3234 1.5092803,0.325 1.7090203,0.002 z m -4.8311103,-1.07575 c 0.99976,0 1.79917,-0.115319 1.79917,-0.259549 0,-0.4698983 -1.28968,-0.5948283 -2.70731,-0.262239 -1.67788,0.393649 -1.84779,0.479788 -1.63277,0.827708 0.11131,0.1801 0.26178,0.17404 0.45411,-0.0183 0.1582,-0.1582 1.09726,-0.28763 2.0868,-0.28763 z M 15.713397,7.1092865 c 0.42849,-0.162909 0.72591,-0.162909 0.82659,0 0.27725,0.448589 0.65521,0.272329 0.65521,-0.305549 0,-0.4628993 -0.10324,-0.5257693 -0.59531,-0.3625193 -0.32742,0.10862 -0.92273,0.2118 -1.32292,0.22929 -0.40018,0.0175 -0.7276,0.1806293 -0.7276,0.3625293 0,0.397058 0.27317,0.414958 1.16403,0.0762 z m -5.39736,-0.3913681 c 0,-0.2096902 -0.12944,-0.4612502 -0.28764,-0.5590302 -0.3736003,-0.23089 -0.8835503,0.27906 -0.6526503,0.6526593 0.25935,0.419629 0.9402903,0.351829 0.9402903,-0.0936 z M 4.1395867,4.6467494 c -0.0725,-0.1791292 -0.12737,0.0315 -0.12197,0.4680588 0.005,0.43656 0.0647,0.58312 0.13177,0.32569 0.0671,-0.25743 0.0627,-0.6146196 -0.01,-0.7937488 z m 1.39535,0.6664988 c -0.0102,-0.25467 -0.12092,-0.7011488 -0.24599,-0.9921876 -0.18241,-0.4244899 -0.23107,-0.3328999 -0.24598,0.4630184 -0.0102,0.5456992 0.10046,0.9921892 0.24598,0.9921892 0.14552,0 0.25622,-0.20836 0.24599,-0.46302 z m 1.00552,-1.1395175 c -0.18351,-2.1775898 -0.39596,-2.2460598 -0.40816,-0.13155 -0.006,1.0363075 0.1013,1.7340875 0.26661,1.7340875 0.17684,0 0.22789,-0.578 0.14155,-1.6025375 z m 1.16796,-0.0249 -0.25508,-0.8861 -0.0239,1.0803899 c -0.0131,0.5942076 0.0654,1.1704276 0.17458,1.2804976 0.32073,0.32346 0.38018,-0.51663 0.10436,-1.4747875 z M 20.023417,4.254921 c -0.0666,-0.2546603 -0.121,-0.0463 -0.121,0.463018 0,0.5093292 0.0545,0.7176892 0.121,0.4630192 0.0665,-0.25466 0.0665,-0.6713784 0,-0.9260372 z m -11.2948803,0.0656 c 0,-0.5093199 -0.11907,-0.9260399 -0.26459,-0.9260399 -0.29339,0 -0.36691,1.3969689 -0.0882,1.6756881 0.30452,0.30452 0.35278,0.20198 0.35278,-0.7496482 z M 30.424367,4.5694908 c 0,-0.2268698 -0.11906,-0.3389094 -0.26458,-0.2489698 -0.34235,0.2115798 -0.34235,0.6614582 0,0.6614582 0.14552,0 0.26458,-0.1856192 0.26458,-0.4124884 z m 14.02292,-1.8534896 c 0,-0.7910099 -0.0498,-1.4381898 -0.11065,-1.4381898 -0.0609,0 -0.29073,-0.0691 -0.51082,-0.1535599 -0.2995,-0.11493 -0.42142,0.0681 -0.48466,0.7276099 -0.0711,0.7409798 -0.18972,0.8811598 -0.74596,0.8811598 -0.5249,0 -0.67874,-0.15021 -0.74517,-0.7276099 -0.0841,-0.7309399 -0.57774,-1.04309979 -0.57774,-0.3653399 0,0.3678599 -1.73393,0.8003298 -2.158,0.5382399 -0.12279,-0.0759 -0.22325,-0.3889199 -0.22325,-0.6956299 0,-0.3067099 -0.0721,-0.48557989 -0.16016,-0.3974899 -0.0881,0.0881 -0.0801,0.8520698 0.0177,1.6977397 l 0.17788,1.5375898 2.7604,-0.0832 2.7604,-0.0832 z m -5.29167,0.4138899 c 0,-0.3423399 0.44988,-0.3423399 0.66146,0 0.0899,0.14552 -0.0221,0.26459 -0.24897,0.26459 -0.22687,0 -0.41249,-0.11907 -0.41249,-0.26459 z m -1.15155,-0.5670099 c -0.0874,-0.8939398 -0.22121,-1.68768968 -0.29741,-1.76388972 -0.1922,-0.19220001 -0.17387,1.55892972 0.0268,2.56240962 0.27846,1.3923389 0.43854,0.9199303 0.27058,-0.7985199 z m -4.86772,0.9209499 c -0.1819,-0.0734 -0.47956,-0.0734 -0.66146,0 -0.1819,0.0734 -0.0331,0.13345 0.33073,0.13345 0.3638,0 0.51263,-0.0601 0.33073,-0.13345 z m -5.27362,-1.0554899 c 0.54148,-0.5414798 -3.82799,-1.4255397 -5.08067,-1.0279498 -1.0814,0.34322 -0.62178,0.8077399 0.70795,0.7154899 0.69743,-0.0484 1.67977,0.0302 2.18298,0.17458 1.10585,0.3173299 1.95671,0.3709099 2.18974,0.1378799 z m 12.35122,-1.2984397 c 0,-0.38400002 -0.11452,-0.60629004 -0.26458,-0.51355003 -0.34413,0.21268005 -0.34413,1.19062993 0,1.19062993 0.14552,0 0.26458,-0.30469 0.26458,-0.6770799 z m -19.57916,-1.17501 c 0,-0.14552011 0.11906,-0.26458003 0.26458,-0.26458003 0.14552,0 0.26458,0.11905992 0.26458,0.26458003 0,0.14551992 -0.11906,0.26458993 -0.26458,0.26458993 -0.14552,0 -0.26458,-0.11907001 -0.26458,-0.26458993 z"
       id="path826"
       inkscape:connector-curvature="0" />
  </g>
</svg>
